<svg width="57" height="55" viewBox="0 0 57 55" fill="none" xmlns="http://www.w3.org/2000/svg">
<path d="M15.4009 16.3951C15.854 12.0224 16.0806 9.8361 17.1357 8.21658C17.8958 7.04979 18.9473 6.10161 20.1862 5.46582C21.9059 4.58334 24.1039 4.58334 28.5 4.58334C32.8961 4.58334 35.0941 4.58334 36.8138 5.46582C38.0527 6.10161 39.1042 7.04979 39.8643 8.21658C40.9194 9.8361 41.146 12.0224 41.5991 16.3951L42.3277 23.425C42.5377 25.4517 42.6427 26.4651 42.9921 27.4106C43.3414 28.356 43.9205 29.1942 45.0788 30.8706L50.0827 38.1131C51.0343 39.4904 51.5101 40.1791 51.2292 40.7145C50.9483 41.25 50.1113 41.25 48.4373 41.25H8.56275C6.88872 41.25 6.0517 41.25 5.77081 40.7145C5.48993 40.1791 5.96571 39.4904 6.91729 38.1131L11.9212 30.8706C13.0795 29.1942 13.6586 28.356 14.0079 27.4106C14.3573 26.4651 14.4623 25.4517 14.6723 23.425L15.4009 16.3951Z" fill="#B9B9B9"/>
<path d="M23.9119 47.2757C24.1825 47.5194 24.7788 47.7347 25.6084 47.8882C26.4379 48.0418 27.4544 48.125 28.5 48.125C29.5456 48.125 30.5621 48.0418 31.3916 47.8882C32.2212 47.7347 32.8175 47.5194 33.0881 47.2757" stroke="#B9B9B9" stroke-width="2" stroke-linecap="round"/>
</svg>
