<svg width="63" height="57" viewBox="0 0 63 57" fill="none" xmlns="http://www.w3.org/2000/svg">
<path d="M12.6376 33.8433L30.8524 49.3246C31.1616 49.5874 31.3162 49.7188 31.5 49.7188C31.6838 49.7188 31.8384 49.5874 32.1476 49.3246L50.3624 33.8433C53.271 31.3712 54.7254 30.1351 55.5174 28.7161C56.7954 26.4261 57.0111 23.6926 56.108 21.2306C55.5484 19.7049 54.2923 18.2401 51.7801 15.3105L51.7801 15.3105C48.7334 11.7576 47.21 9.98119 45.6246 9.24987C42.9236 8.00393 39.7543 8.35948 37.3964 10.173C36.0125 11.2374 34.9333 13.2832 32.7749 17.3749C32.4386 18.0123 32.2705 18.331 32.0698 18.4701C31.7271 18.7078 31.2729 18.7078 30.9302 18.4701C30.7295 18.331 30.5614 18.0123 30.2251 17.3749C28.0667 13.2832 26.9875 11.2374 25.6036 10.173C23.2457 8.35948 20.0764 8.00393 17.3754 9.24987C15.79 9.98119 14.2666 11.7576 11.2199 15.3105C8.70771 18.2401 7.45159 19.7049 6.89196 21.2306C5.98887 23.6926 6.20457 26.4261 7.48264 28.7161C8.27465 30.1351 9.72895 31.3712 12.6376 33.8433Z" fill="#B9B9B9" stroke="#B9B9B9" stroke-width="2"/>
</svg>
