<svg width="143" height="909" viewBox="0 0 143 909" fill="none" xmlns="http://www.w3.org/2000/svg">
<path d="M0 106.192L106.618 30.9479L106.618 181.435L0 106.192Z" fill="black"/>
<path d="M0 239.8L106.618 164.556L106.618 315.044L0 239.8Z" fill="black"/>
<path d="M0 373.408L106.618 298.164L106.618 448.652L0 373.408Z" fill="black"/>
<path d="M0 494.66L106.618 419.416L106.618 569.904L0 494.66Z" fill="black"/>
<path d="M0 615.911L106.618 540.667L106.618 691.155L0 615.911Z" fill="black"/>
<path d="M0 735.618L106.618 660.374L106.618 810.862L0 735.618Z" fill="black"/>
<path d="M0 615.911L106.618 540.667L106.618 691.155L0 615.911Z" fill="black"/>
<path d="M0 822.116L106.618 746.872L106.618 897.36L0 822.116Z" fill="black"/>
<path d="M0 802.808L106.618 727.565L106.618 878.052L0 802.808Z" fill="#58585A"/>
<path d="M0 716.311L106.618 641.067L106.618 791.554L0 716.311Z" fill="#58585A"/>
<path d="M0 596.604L106.618 521.36L106.618 671.847L0 596.604Z" fill="#58585A"/>
<path d="M0 476.124L106.618 400.881L106.618 551.368L0 476.124Z" fill="#58585A"/>
<path d="M0 353.328L106.618 278.085L106.618 428.572L0 353.328Z" fill="#58585A"/>
<path d="M0 221.265L106.618 146.021L106.618 296.508L0 221.265Z" fill="#58585A"/>
<path d="M0 86.884L106.618 11.6403L106.618 162.128L0 86.884Z" fill="#58585A"/>
<path d="M0 86.884L106.618 11.6403L106.618 162.128L0 86.884Z" fill="#58585A"/>
</svg>
