<svg width="59" height="51" viewBox="0 0 59 51" fill="none" xmlns="http://www.w3.org/2000/svg">
<path d="M12.2917 27.1142C12.2917 24.2289 12.2917 22.7863 12.9665 21.5182C13.6412 20.2502 14.9083 19.3113 17.4426 17.4336L19.9009 15.6122C24.4816 12.2183 26.7719 10.5214 29.5001 10.5214C32.2283 10.5214 34.5186 12.2183 39.0993 15.6122L41.5576 17.4336C44.0919 19.3113 45.359 20.2502 46.0337 21.5182C46.7084 22.7863 46.7084 24.2289 46.7084 27.1142V36.125C46.7084 40.1319 46.7084 42.1354 45.2684 43.3802C43.8283 44.625 41.5106 44.625 36.8751 44.625H22.1251C17.4896 44.625 15.1719 44.625 13.7318 43.3802C12.2917 42.1354 12.2917 40.1319 12.2917 36.125V27.1142Z" stroke="#33363F" stroke-width="2"/>
<path d="M35.6459 44.625V32.875C35.6459 32.3227 35.1982 31.875 34.6459 31.875H24.3542C23.802 31.875 23.3542 32.3227 23.3542 32.875V44.625" stroke="#33363F" stroke-width="2" stroke-linecap="round" stroke-linejoin="round"/>
</svg>
