<svg width="70" height="64" viewBox="0 0 70 64" fill="none" xmlns="http://www.w3.org/2000/svg">
<path d="M30.063 19.2531C31.9357 14.9846 32.8721 12.8503 34.3934 12.5545C34.7934 12.4768 35.2068 12.4768 35.6068 12.5545C37.1281 12.8503 38.0644 14.9846 39.9371 19.2531C41.0021 21.6805 41.5346 22.8942 42.531 23.7197C42.8105 23.9513 43.1138 24.1575 43.4368 24.3355C44.5884 24.9701 46.0261 25.0878 48.9013 25.3232C53.7685 25.7218 56.2021 25.921 56.9453 27.1897C57.0992 27.4524 57.2038 27.7369 57.2549 28.0313C57.5012 29.4527 55.7122 30.9409 52.134 33.9172L51.1404 34.7437C49.4676 36.1352 48.6311 36.8309 48.1473 37.6992C47.8571 38.22 47.6625 38.781 47.5714 39.3595C47.4194 40.324 47.6643 41.3333 48.1542 43.352L48.3292 44.0732C49.2077 47.6933 49.6469 49.5033 49.0986 50.393C48.6061 51.1922 47.6989 51.7038 46.6967 51.7476C45.581 51.7963 44.009 50.6251 40.8649 48.2827C38.7934 46.7395 37.7577 45.9679 36.6079 45.6664C35.5572 45.391 34.443 45.391 33.3922 45.6664C32.2425 45.9679 31.2067 46.7395 29.1353 48.2827C25.9912 50.6251 24.4192 51.7963 23.3035 51.7476C22.3013 51.7038 21.3941 51.1922 20.9016 50.393C20.3532 49.5033 20.7925 47.6933 21.671 44.0732L21.846 43.352C22.3359 41.3333 22.5808 40.324 22.4288 39.3595C22.3376 38.781 22.143 38.22 21.8528 37.6992C21.369 36.8309 20.5326 36.1352 18.8598 34.7437L17.8661 33.9172C14.288 30.9409 12.4989 29.4527 12.7453 28.0313C12.7964 27.7369 12.901 27.4524 13.0549 27.1897C13.7981 25.921 16.2317 25.7218 21.0989 25.3232C23.9741 25.0878 25.4117 24.9701 26.5633 24.3355C26.8863 24.1575 27.1897 23.9513 27.4692 23.7197C28.4656 22.8942 28.998 21.6805 30.063 19.2531Z" fill="#B9B9B9" stroke="#B9B9B9" stroke-width="2"/>
</svg>
