<svg width="70" height="64" viewBox="0 0 70 64" fill="none" xmlns="http://www.w3.org/2000/svg">
<path d="M30.0628 19.253C31.9355 14.9845 32.8719 12.8502 34.3931 12.5544C34.7931 12.4766 35.2066 12.4766 35.6066 12.5544C37.1278 12.8502 38.0642 14.9845 39.9369 19.253C41.0019 21.6804 41.5344 22.8941 42.5307 23.7196C42.8102 23.9511 43.1136 24.1574 43.4366 24.3354C44.5882 24.97 46.0258 25.0877 48.901 25.3231C53.7682 25.7216 56.2019 25.9209 56.945 27.1896C57.0989 27.4523 57.2036 27.7368 57.2546 28.0312C57.501 29.4526 55.7119 30.9407 52.1338 33.9171L51.1402 34.7436C49.4673 36.1351 48.6309 36.8308 48.1471 37.6991C47.8569 38.2199 47.6623 38.7808 47.5711 39.3594C47.4191 40.3239 47.6641 41.3332 48.1539 43.3518L48.3289 44.0731C49.2074 47.6932 49.6467 49.5032 49.0984 50.3929C48.6058 51.1921 47.6986 51.7037 46.6965 51.7475C45.5808 51.7962 44.0087 50.625 40.8646 48.2826C38.7932 46.7394 37.7575 45.9677 36.6077 45.6663C35.557 45.3909 34.4427 45.3909 33.392 45.6663C32.2422 45.9677 31.2065 46.7394 29.1351 48.2826C25.991 50.625 24.4189 51.7962 23.3032 51.7475C22.3011 51.7037 21.3938 51.1921 20.9013 50.3929C20.353 49.5032 20.7922 47.6932 21.6707 44.0731L21.8458 43.3519C22.3356 41.3332 22.5806 40.3239 22.4286 39.3594C22.3374 38.7808 22.1428 38.2199 21.8526 37.6991C21.3688 36.8308 20.5324 36.1351 18.8595 34.7436L17.8659 33.9171C14.2878 30.9407 12.4987 29.4526 12.7451 28.0312C12.7961 27.7368 12.9008 27.4523 13.0547 27.1896C13.7978 25.9209 16.2314 25.7216 21.0987 25.3231C23.9739 25.0877 25.4115 24.97 26.5631 24.3354C26.8861 24.1574 27.1895 23.9511 27.4689 23.7196C28.4653 22.8941 28.9978 21.6804 30.0628 19.253Z" fill="white" stroke="white" stroke-width="2"/>
</svg>
