<svg width="70" height="64" viewBox="0 0 70 64" fill="none" xmlns="http://www.w3.org/2000/svg">
<path d="M30.0628 19.2531C31.9355 14.9846 32.8719 12.8503 34.3931 12.5545C34.7931 12.4768 35.2066 12.4768 35.6066 12.5545C37.1278 12.8503 38.0642 14.9846 39.9369 19.2531C41.0019 21.6805 41.5344 22.8942 42.5307 23.7197C42.8102 23.9513 43.1136 24.1575 43.4366 24.3355C44.5882 24.9701 46.0258 25.0878 48.901 25.3232C53.7682 25.7218 56.2019 25.921 56.945 27.1897C57.0989 27.4524 57.2036 27.7369 57.2546 28.0313C57.501 29.4527 55.7119 30.9409 52.1338 33.9172L51.1402 34.7437C49.4673 36.1352 48.6309 36.8309 48.1471 37.6992C47.8569 38.22 47.6623 38.781 47.5711 39.3595C47.4191 40.324 47.6641 41.3333 48.1539 43.352L48.3289 44.0732C49.2074 47.6933 49.6467 49.5033 49.0984 50.393C48.6058 51.1922 47.6986 51.7038 46.6965 51.7476C45.5808 51.7963 44.0087 50.6251 40.8646 48.2827C38.7932 46.7395 37.7575 45.9679 36.6077 45.6664C35.557 45.391 34.4427 45.391 33.392 45.6664C32.2422 45.9679 31.2065 46.7395 29.1351 48.2827C25.991 50.6251 24.4189 51.7963 23.3032 51.7476C22.3011 51.7038 21.3938 51.1922 20.9013 50.393C20.353 49.5033 20.7922 47.6933 21.6707 44.0732L21.8458 43.352C22.3356 41.3333 22.5806 40.324 22.4286 39.3595C22.3374 38.781 22.1428 38.22 21.8526 37.6992C21.3688 36.8309 20.5324 36.1352 18.8595 34.7437L17.8659 33.9172C14.2878 30.9409 12.4987 29.4527 12.7451 28.0313C12.7961 27.7369 12.9008 27.4524 13.0547 27.1897C13.7978 25.921 16.2314 25.7218 21.0987 25.3232C23.9739 25.0878 25.4115 24.9701 26.5631 24.3355C26.8861 24.1575 27.1895 23.9513 27.4689 23.7197C28.4653 22.8942 28.9978 21.6805 30.0628 19.2531Z" fill="#C7C7C7" stroke="#C7C7C7" stroke-width="2"/>
</svg>
